<svg class="w-10 group-hover:text-black" version="1.1" id="RodeX_logo" xmlns="http://www.w3.org/2000/svg" xmlns:xlink="http://www.w3.org/1999/xlink" viewBox="0 0 415 141.8" height="100%">
                            <g>
                                <polygon fill="#000000" points="360.6,70.9 306.2,141.8 257.8,141.8 312.2,70.9 257.8,0 306.2,0 	"></polygon>
                                <polygon fill="#000000" points="368.4,60.7 415,0 366.6,0 344.2,29.2 	"></polygon>
                                <polygon fill="#000000" points="344.2,112.6 366.6,141.8 415,141.8 368.4,81.1 	"></polygon>
                            </g>
                                <path fill="currentColor" d="M61.2,57c0-13.4-13.2-21.6-25.5-21.6H0v70.9h21.3V72.1l16.4,33.7l0.3,0.6h24.2L45.3,76.5
                                C55.1,73.7,61.1,66.3,61.2,57L61.2,57z M21.3,45.7h6.3c6.8,0,11.6,4.8,11.6,11.7c0,10-5.7,11.9-15.5,11.9h-2.3
                                C21.3,69.3,21.3,45.7,21.3,45.7z M269.5,95v11.3h-47.1V35.4h47.2v11.3h-25.9v17.5H267v11.3h-23.2V95L269.5,95L269.5,95z M178.6,35.4
                                h-31.4v70.9h34.6c21.2,0,34.9-13.4,34.9-34.2S200.7,35.4,178.6,35.4z M194.7,69.4c0,13.2-5.3,27.2-20,27.2h-7.1V45.1h6.4
                                C188.2,45.1,194.7,57.3,194.7,69.4L194.7,69.4z M139.7,40.2l-5.9-5.9l-7.3,7.3c-6.4-5.1-14.6-8.1-23.6-8.1
                                c-21.1,0-37.7,16.4-37.7,37.4c0,9.1,3.1,17.3,8.3,23.7l-7.2,7.2l5.9,5.9l7.3-7.3c6.4,4.9,14.5,7.8,23.3,7.8
                                c21.1,0,37.7-16.4,37.7-37.4c0-8.9-3-17-8.1-23.4L139.7,40.2L139.7,40.2z M102.8,42.8c6.6,0,10.4,4.3,12.7,9.7L87.8,80.2
                                c-0.5-3.5-0.6-6.9-0.6-9.3C87.2,62.4,88.7,42.8,102.8,42.8L102.8,42.8z M117.9,62c0.5,3.4,0.6,6.5,0.6,8.9c0,8.4-1.5,28.1-15.7,28.1
                                c-6.5,0-10.3-4.1-12.5-9.4L117.9,62L117.9,62z">
                                </path>
                        </svg>